{"title":"Night.of.the.Demons.1988.BRRip.XviD.MP3-RARBG","uid":12568889,"size":1112643555,"categoryP":"video","categoryS":"movies","magnet":"?xt=urn:btih:e57c9428b6eb928960149ab8b79fd7d97717412e&amp;dn=Night.of.the.Demons.1988.BRRip.XviD.MP3-RARBG&amp;tr=udp%3A%2F%2Ftracker.leechers-paradise.org%3A6969&amp;tr=udp%3A%2F%2Fzer0day.ch%3A1337&amp;tr=udp%3A%2F%2Fopen.demonii.com%3A1337&amp;tr=udp%3A%2F%2Ftracker.coppersurfer.tk%3A6969&amp;tr=udp%3A%2F%2Fexodus.desync.com%3A6969","seeders":0,"leechers":1,"uploader":null,"files":6,"time":1444820884,"description":"Video\r\nID                                       : 0\r\nFormat                                   : MPEG-4 Visual\r\nFormat profile                           :   \r\nFormat settings, BVOP                    : No\r\nFormat settings, QPel                    : No\r\nFormat settings, GMC                     : No warppoints\r\nFormat settings, Matrix                  : Default (H.263)\r\nCodec ID                                 : XVID\r\nCodec ID/Hint                            : XviD\r\nDuration                                 : 1h 30mn\r\nBit rate                                 : 1 436 Kbps\r\nWidth                                    : 720 pixels\r\nHeight                                   : 390 pixels\r\nDisplay aspect ratio                     : 1.85:1\r\nFrame rate                               : 23.976 fps\r\nColor space                              : YUV\r\nChroma subsampling                       : 4:2:0\r\nBit depth                                : 8 bits\r\nScan type                                : Progressive\r\nCompression mode                         : Lossy\r\nBits/(Pixel*Frame)                       : 0.213\r\nStream size                              : 925 MiB (87%)\r\nTitle                                    : RARBG.COM - Night.of.the.Demons.1988.BRRip.XviD.MP3-RARBG\r\nWriting library                          : Lavc56.60.100\r\n\r\nAudio\r\nID                                       : 1\r\nFormat                                   : MPEG Audio\r\nFormat version                           : Version 1\r\nFormat profile                           : Layer 3\r\nMode                                     : Joint stereo\r\nMode extension                           : MS Stereo\r\nCodec ID                                 : 55\r\nCodec ID/Hint                            : MP3\r\nDuration                                 : 1h 30mn\r\nBit rate mode                            : Constant\r\nBit rate                                 : 192 Kbps\r\nChannel(s)                               : 2 channels\r\nSampling rate                            : 48.0 KHz\r\nCompression mode                         : Lossy\r\nStream size                              : 124 MiB (12%)\r\nAlignment                                : Aligned on interleaves\r\nInterleave, duration                     : 24 ms (0.58 video frame)\r\nInterleave, preload duration             : 24 ms\r\nTitle                                    : RARBG.COM - Night.of.the.Demons.1988.BRRip.XviD.MP3-RARBG\r\nWriting library                          : LAME3.99.5","torrent":{"xt":"urn:btih:e57c9428b6eb928960149ab8b79fd7d97717412e","amp;dn":"Night.of.the.Demons.1988.BRRip.XviD.MP3-RARBG","amp;tr":["udp%3A%2F%2Ftracker.leechers-paradise.org%3A6969","udp%3A%2F%2Fzer0day.ch%3A1337","udp%3A%2F%2Fopen.demonii.com%3A1337","udp%3A%2F%2Ftracker.coppersurfer.tk%3A6969","udp%3A%2F%2Fexodus.desync.com%3A6969"],"infoHash":"e57c9428b6eb928960149ab8b79fd7d97717412e","infoHashBuffer":{"type":"Buffer","data":[229,124,148,40,182,235,146,137,96,20,154,184,183,159,215,217,119,23,65,46]},"announce":[],"urlList":[]}}